<?xml version="1.0" encoding="UTF-8"?>
<svg version="1.1" xmlns="http://www.w3.org/2000/svg" width="500" height="500">
<path d="M0 0 C165 0 330 0 500 0 C500 165 500 330 500 500 C335 500 170 500 0 500 C0 335 0 170 0 0 Z " fill="#000000" transform="translate(0,0)"/>
<path d="M0 0 C45.21 0 90.42 0 137 0 C137 15.84 137 31.68 137 48 C109.61 48 82.22 48 54 48 C54 63.51 54 79.02 54 95 C79.41 95 104.82 95 131 95 C131 110.51 131 126.02 131 142 C105.59 142 80.18 142 54 142 C54 173.35 54 204.7 54 237 C36.18 237 18.36 237 0 237 C0 158.79 0 80.58 0 0 Z " fill="#FDFDFD" transform="translate(112,119)"/>
<path d="M0 0 C45.21 0 90.42 0 137 0 C137 15.84 137 31.68 137 48 C109.61 48 82.22 48 54 48 C54 63.51 54 79.02 54 95 C79.08 95 104.16 95 130 95 C130 110.51 130 126.02 130 142 C104.92 142 79.84 142 54 142 C54 173.35 54 204.7 54 237 C36.18 237 18.36 237 0 237 C0 158.79 0 80.58 0 0 Z " fill="#334BCB" transform="translate(275,119)"/>
</svg>
